<svg width="32" height="32" viewBox="0 0 32 32" fill="none" xmlns="http://www.w3.org/2000/svg">
<path fill-rule="evenodd" clip-rule="evenodd" d="M12.0001 16H8.97607C8.68256 16.5084 8.2295 16.9057 7.68716 17.1303C7.14482 17.355 6.5435 17.3944 5.97648 17.2425C5.40946 17.0905 4.90842 16.7557 4.55106 16.29C4.1937 15.8243 4 15.2537 4 14.6667C4 14.0796 4.1937 13.509 4.55106 13.0433C4.90842 12.5776 5.40946 12.2428 5.97648 12.0909C6.5435 11.9389 7.14482 11.9783 7.68716 12.203C8.2295 12.4276 8.68256 12.825 8.97607 13.3333H12.0001V6.66667C12.0001 5.95942 12.281 5.28115 12.7811 4.78105C13.2812 4.28095 13.9595 4 14.6667 4H25.3334C26.0406 4 26.7189 4.28095 27.219 4.78105C27.7191 5.28115 28.0001 5.95942 28.0001 6.66667V25.3333C28.0001 26.0406 27.7191 26.7189 27.219 27.219C26.7189 27.719 26.0406 28 25.3334 28H14.6667C13.9595 28 13.2812 27.719 12.7811 27.219C12.281 26.7189 12.0001 26.0406 12.0001 25.3333V16ZM14.6667 16V25.3333H25.3334V6.66667H14.6667V13.3333H17.6907C17.9842 12.825 18.4373 12.4276 18.9796 12.203C19.522 11.9783 20.1233 11.9389 20.6903 12.0909C21.2573 12.2428 21.7584 12.5776 22.1157 13.0433C22.4731 13.509 22.6668 14.0796 22.6668 14.6667C22.6668 15.2537 22.4731 15.8243 22.1157 16.29C21.7584 16.7557 21.2573 17.0905 20.6903 17.2425C20.1233 17.3944 19.522 17.355 18.9796 17.1303C18.4373 16.9057 17.9842 16.5084 17.6907 16H14.6667Z" fill="white"/>
</svg>
