<svg width="32" height="32" viewBox="0 0 32 32" fill="none" xmlns="http://www.w3.org/2000/svg">
<path d="M7.16015 2.25004C7.32649 2.39499 7.44022 2.59089 7.48363 2.80721C7.52704 3.02353 7.49769 3.24814 7.40015 3.44604C7.38239 3.50437 7.37362 3.56507 7.37415 3.62604C7.37415 3.75204 7.40615 3.99204 7.70815 4.29204C7.85415 4.43804 7.96615 4.54204 8.08815 4.65604C8.18815 4.74804 8.29415 4.84404 8.42815 4.97604C8.68815 5.22404 8.96215 5.51604 9.20815 5.88204C9.71815 6.64804 10.0001 7.60604 10.0001 9.00004C10.0001 9.76404 9.87415 10.48 9.64415 11.114C8.99215 12.914 7.52615 14 6.00015 14C4.47415 14 3.00815 12.912 2.35615 11.114C2.11563 10.4354 1.99516 9.72003 2.00015 9.00004C2.00015 8.34804 2.17415 7.57004 2.41415 6.85204C2.65415 6.13404 2.99015 5.38804 3.37815 4.78804C3.84015 4.00804 4.49015 3.35404 4.99415 2.91404C5.27148 2.67225 5.55978 2.44334 5.85815 2.22804L5.91815 2.18804L5.93615 2.17404L5.94215 2.17004L5.94615 2.16804C6.12954 2.0458 6.34818 1.98756 6.56808 2.00239C6.78799 2.01722 6.99683 2.10428 7.16215 2.25004M6.00015 16C7.27048 16.0033 8.50129 15.5585 9.47615 14.744C9.51615 14.8694 9.55415 14.996 9.59015 15.124C10.0001 16.628 10.0001 18.488 10.0001 19.926V20C10.0001 24.116 9.23015 26.56 8.35815 28.014C8.02775 28.5859 7.59526 29.0923 7.08215 29.508C6.87804 29.666 6.65662 29.8002 6.42215 29.908C6.42215 29.908 6.16815 30 6.00015 30C5.85597 29.9886 5.71401 29.9576 5.57815 29.908C5.34368 29.8002 5.12225 29.666 4.91815 29.508C4.40504 29.0923 3.97254 28.5859 3.64215 28.014C2.77015 26.562 2.00015 24.116 2.00015 20V19.928C2.00015 18.488 2.00015 16.63 2.41015 15.122C2.44482 14.9967 2.48282 14.87 2.52415 14.742C3.49818 15.5587 4.72906 16.0056 6.00015 16.004M13.9961 21.95C13.3029 21.8727 12.621 21.7149 11.9641 21.48C11.9881 20.976 12.0001 20.456 12.0001 19.92V19.328C12.6201 19.622 13.2921 19.828 13.9961 19.928V16C13.9961 14.9392 14.4176 13.9218 15.1677 13.1716C15.9179 12.4215 16.9353 12 17.9961 12H21.9261C21.7671 10.8942 21.3456 9.84255 20.697 8.9329C20.0484 8.02326 19.1915 7.28207 18.1979 6.77127C17.2044 6.26048 16.1029 5.99492 14.9857 5.9968C13.8685 5.99867 12.768 6.26792 11.7761 6.78204C11.619 6.12819 11.3599 5.50319 11.0081 4.93004C12.3044 4.28941 13.7359 3.97053 15.1815 4.00038C16.6271 4.03024 18.0443 4.40796 19.313 5.10156C20.5817 5.79517 21.6646 6.78424 22.47 7.98505C23.2755 9.18585 23.7797 10.563 23.9401 12H25.9941C27.055 12 28.0724 12.4215 28.8226 13.1716C29.5727 13.9218 29.9941 14.9392 29.9941 16V24C29.9941 25.0609 29.5727 26.0783 28.8226 26.8285C28.0724 27.5786 27.055 28 25.9941 28H17.9941C16.9333 28 15.9159 27.5786 15.1657 26.8285C14.4156 26.0783 13.9941 25.0609 13.9941 24L13.9961 21.95ZM23.9421 14C23.7156 16.0295 22.8056 17.9216 21.3617 19.3656C19.9177 20.8095 18.0256 21.7195 15.9961 21.946V24C15.9961 24.5305 16.2069 25.0392 16.5819 25.4143C16.957 25.7893 17.4657 26 17.9961 26H25.9961C26.5266 26 27.0353 25.7893 27.4104 25.4143C27.7854 25.0392 27.9961 24.5305 27.9961 24V16C27.9961 15.4696 27.7854 14.9609 27.4104 14.5858C27.0353 14.2108 26.5266 14 25.9961 14H23.9421ZM21.9261 14H17.9961C17.4657 14 16.957 14.2108 16.5819 14.5858C16.2069 14.9609 15.9961 15.4696 15.9961 16V19.93C17.4924 19.7144 18.8786 19.0203 19.9475 17.9514C21.0164 16.8825 21.7105 15.4962 21.9261 14Z" fill="white"/>
</svg>
